<mxfile host="app.diagrams.net" modified="2021-03-21T08:24:58.724Z" agent="5.0 (Windows NT 10.0; Win64; x64) AppleWebKit/537.36 (KHTML, like Gecko) Chrome/89.0.4389.90 Safari/537.36 Edg/89.0.774.57" etag="thQsaL7XHzhFg5vLHYBu" version="14.4.9" type="github">
  <diagram name="Page-1" id="7e0a89b8-554c-2b80-1dc8-d5c74ca68de4">
    <mxGraphModel dx="2062" dy="1154" grid="1" gridSize="10" guides="1" tooltips="1" connect="1" arrows="1" fold="1" page="1" pageScale="1" pageWidth="1100" pageHeight="850" background="#ffffff" math="0" shadow="0">
      <root>
        <mxCell id="0" />
        <mxCell id="1" parent="0" />
        <mxCell id="i7wElS3efbMtg37ijF3j-10" style="edgeStyle=orthogonalEdgeStyle;rounded=0;orthogonalLoop=1;jettySize=auto;html=1;entryX=0;entryY=0.72;entryDx=0;entryDy=0;entryPerimeter=0;endArrow=classic;endFill=1;endSize=5;strokeColor=#000000;strokeWidth=1;" parent="1" source="i7wElS3efbMtg37ijF3j-2" target="i7wElS3efbMtg37ijF3j-4" edge="1">
          <mxGeometry relative="1" as="geometry">
            <Array as="points">
              <mxPoint x="407" y="445" />
              <mxPoint x="407" y="440" />
              <mxPoint x="407" y="440" />
            </Array>
          </mxGeometry>
        </mxCell>
        <mxCell id="i7wElS3efbMtg37ijF3j-2" value="" style="ellipse;whiteSpace=wrap;html=1;aspect=fixed;" parent="1" vertex="1">
          <mxGeometry x="340" y="425" width="40" height="40" as="geometry" />
        </mxCell>
        <mxCell id="i7wElS3efbMtg37ijF3j-3" value="" style="pointerEvents=1;verticalLabelPosition=bottom;shadow=0;dashed=0;align=center;html=1;verticalAlign=top;shape=mxgraph.electrical.waveforms.pulse_1;" parent="1" vertex="1">
          <mxGeometry x="348.5" y="435" width="23" height="20" as="geometry" />
        </mxCell>
        <mxCell id="i7wElS3efbMtg37ijF3j-8" style="edgeStyle=orthogonalEdgeStyle;rounded=0;orthogonalLoop=1;jettySize=auto;html=1;exitX=0.7;exitY=1;exitDx=0;exitDy=0;exitPerimeter=0;entryX=0;entryY=1;entryDx=0;entryDy=0;entryPerimeter=0;endArrow=none;endFill=0;endSize=5;strokeColor=#000000;strokeWidth=1;" parent="1" source="i7wElS3efbMtg37ijF3j-4" target="i7wElS3efbMtg37ijF3j-7" edge="1">
          <mxGeometry relative="1" as="geometry" />
        </mxCell>
        <mxCell id="i7wElS3efbMtg37ijF3j-14" style="edgeStyle=orthogonalEdgeStyle;rounded=0;orthogonalLoop=1;jettySize=auto;html=1;exitX=0.7;exitY=0;exitDx=0;exitDy=0;exitPerimeter=0;entryX=1;entryY=0.5;entryDx=0;entryDy=0;entryPerimeter=0;endArrow=none;endFill=0;endSize=5;strokeColor=#000000;strokeWidth=1;" parent="1" source="i7wElS3efbMtg37ijF3j-4" target="i7wElS3efbMtg37ijF3j-13" edge="1">
          <mxGeometry relative="1" as="geometry" />
        </mxCell>
        <mxCell id="i7wElS3efbMtg37ijF3j-4" value="" style="verticalLabelPosition=bottom;shadow=0;dashed=0;align=center;html=1;verticalAlign=top;shape=mxgraph.electrical.mosfets1.n-channel_mosfet_1;strokeWidth=1;direction=south;flipH=1;flipV=1;" parent="1" vertex="1">
          <mxGeometry x="372.5" y="377" width="47.5" height="43" as="geometry" />
        </mxCell>
        <mxCell id="i7wElS3efbMtg37ijF3j-9" style="edgeStyle=orthogonalEdgeStyle;rounded=0;orthogonalLoop=1;jettySize=auto;html=1;exitX=1;exitY=0.5;exitDx=0;exitDy=0;exitPerimeter=0;endArrow=none;endFill=0;endSize=5;strokeColor=#000000;strokeWidth=1;" parent="1" source="i7wElS3efbMtg37ijF3j-6" edge="1">
          <mxGeometry relative="1" as="geometry">
            <mxPoint x="450" y="390" as="targetPoint" />
          </mxGeometry>
        </mxCell>
        <mxCell id="i7wElS3efbMtg37ijF3j-17" style="edgeStyle=orthogonalEdgeStyle;rounded=0;orthogonalLoop=1;jettySize=auto;html=1;exitX=0;exitY=0.5;exitDx=0;exitDy=0;exitPerimeter=0;entryX=0;entryY=0.5;entryDx=0;entryDy=0;entryPerimeter=0;endArrow=none;endFill=0;endSize=5;strokeColor=#000000;strokeWidth=1;" parent="1" source="i7wElS3efbMtg37ijF3j-6" target="i7wElS3efbMtg37ijF3j-16" edge="1">
          <mxGeometry relative="1" as="geometry" />
        </mxCell>
        <mxCell id="i7wElS3efbMtg37ijF3j-6" value="" style="pointerEvents=1;fillColor=strokeColor;verticalLabelPosition=bottom;shadow=0;dashed=0;align=center;html=1;verticalAlign=top;shape=mxgraph.electrical.diodes.diode;direction=west;" parent="1" vertex="1">
          <mxGeometry x="476" y="380" width="38" height="20" as="geometry" />
        </mxCell>
        <mxCell id="i7wElS3efbMtg37ijF3j-7" value="" style="pointerEvents=1;verticalLabelPosition=bottom;shadow=0;dashed=0;align=center;html=1;verticalAlign=top;shape=mxgraph.electrical.inductors.inductor_3;strokeWidth=1;direction=south;" parent="1" vertex="1">
          <mxGeometry x="452" y="400" width="8" height="78" as="geometry" />
        </mxCell>
        <mxCell id="i7wElS3efbMtg37ijF3j-12" value="PWM" style="text;html=1;strokeColor=none;fillColor=none;align=center;verticalAlign=middle;whiteSpace=wrap;rounded=0;" parent="1" vertex="1">
          <mxGeometry x="340" y="465" width="40" height="20" as="geometry" />
        </mxCell>
        <mxCell id="i7wElS3efbMtg37ijF3j-15" style="edgeStyle=orthogonalEdgeStyle;rounded=0;orthogonalLoop=1;jettySize=auto;html=1;exitX=0;exitY=0.5;exitDx=0;exitDy=0;exitPerimeter=0;entryX=1;entryY=1;entryDx=0;entryDy=0;entryPerimeter=0;endArrow=none;endFill=0;endSize=5;strokeColor=#000000;strokeWidth=1;" parent="1" source="i7wElS3efbMtg37ijF3j-13" target="i7wElS3efbMtg37ijF3j-7" edge="1">
          <mxGeometry relative="1" as="geometry">
            <Array as="points">
              <mxPoint x="290" y="489" />
              <mxPoint x="452" y="489" />
            </Array>
          </mxGeometry>
        </mxCell>
        <mxCell id="i7wElS3efbMtg37ijF3j-13" value="" style="verticalLabelPosition=bottom;shadow=0;dashed=0;align=center;fillColor=#000000;html=1;verticalAlign=top;strokeWidth=1;shape=mxgraph.electrical.miscellaneous.monocell_battery;rounded=1;comic=0;labelBackgroundColor=none;fontFamily=Verdana;fontSize=12;flipH=1;direction=north;" parent="1" vertex="1">
          <mxGeometry x="270" y="409" width="40" height="60" as="geometry" />
        </mxCell>
        <mxCell id="i7wElS3efbMtg37ijF3j-16" value="" style="pointerEvents=1;verticalLabelPosition=bottom;shadow=0;dashed=0;align=center;html=1;verticalAlign=top;shape=mxgraph.electrical.capacitors.capacitor_1;direction=south;" parent="1" vertex="1">
          <mxGeometry x="514" y="409" width="30" height="60" as="geometry" />
        </mxCell>
        <mxCell id="i7wElS3efbMtg37ijF3j-19" style="edgeStyle=orthogonalEdgeStyle;rounded=0;orthogonalLoop=1;jettySize=auto;html=1;exitX=0;exitY=0.5;exitDx=0;exitDy=0;exitPerimeter=0;endArrow=none;endFill=0;endSize=5;strokeColor=#000000;strokeWidth=1;entryX=1;entryY=0.5;entryDx=0;entryDy=0;entryPerimeter=0;" parent="1" source="i7wElS3efbMtg37ijF3j-13" target="i7wElS3efbMtg37ijF3j-16" edge="1">
          <mxGeometry relative="1" as="geometry">
            <mxPoint x="270" y="469" as="sourcePoint" />
            <mxPoint x="531.4883720930233" y="510" as="targetPoint" />
            <Array as="points">
              <mxPoint x="290" y="489" />
              <mxPoint x="529" y="489" />
            </Array>
          </mxGeometry>
        </mxCell>
        <mxCell id="i7wElS3efbMtg37ijF3j-20" value="" style="shape=image;html=1;verticalAlign=top;verticalLabelPosition=bottom;labelBackgroundColor=#ffffff;imageAspect=0;aspect=fixed;image=https://cdn1.iconfinder.com/data/icons/essentials-pack/96/add_create_new_plus_positive-128.png;strokeWidth=1;" parent="1" vertex="1">
          <mxGeometry x="562" y="478" width="8" height="8" as="geometry" />
        </mxCell>
        <mxCell id="i7wElS3efbMtg37ijF3j-21" value="" style="shape=image;html=1;verticalAlign=top;verticalLabelPosition=bottom;labelBackgroundColor=#ffffff;imageAspect=0;aspect=fixed;image=https://cdn1.iconfinder.com/data/icons/essentials-pack/96/delete_minus_remove_close_negative-128.png;strokeWidth=1;" parent="1" vertex="1">
          <mxGeometry x="562" y="392" width="8" height="8" as="geometry" />
        </mxCell>
        <mxCell id="i7wElS3efbMtg37ijF3j-24" style="edgeStyle=orthogonalEdgeStyle;rounded=0;orthogonalLoop=1;jettySize=auto;html=1;exitX=0;exitY=0.5;exitDx=0;exitDy=0;exitPerimeter=0;entryX=0;entryY=0.5;entryDx=0;entryDy=0;entryPerimeter=0;endArrow=none;endFill=0;endSize=5;strokeColor=#000000;strokeWidth=1;" parent="1" source="i7wElS3efbMtg37ijF3j-22" target="i7wElS3efbMtg37ijF3j-16" edge="1">
          <mxGeometry relative="1" as="geometry">
            <Array as="points">
              <mxPoint x="575" y="390" />
              <mxPoint x="529" y="390" />
            </Array>
          </mxGeometry>
        </mxCell>
        <mxCell id="i7wElS3efbMtg37ijF3j-25" style="edgeStyle=orthogonalEdgeStyle;rounded=0;orthogonalLoop=1;jettySize=auto;html=1;exitX=1;exitY=0.5;exitDx=0;exitDy=0;exitPerimeter=0;entryX=1;entryY=0.5;entryDx=0;entryDy=0;entryPerimeter=0;endArrow=none;endFill=0;endSize=5;strokeColor=#000000;strokeWidth=1;" parent="1" source="i7wElS3efbMtg37ijF3j-22" target="i7wElS3efbMtg37ijF3j-16" edge="1">
          <mxGeometry relative="1" as="geometry" />
        </mxCell>
        <mxCell id="i7wElS3efbMtg37ijF3j-22" value="" style="pointerEvents=1;verticalLabelPosition=bottom;shadow=0;dashed=0;align=center;html=1;verticalAlign=top;shape=mxgraph.electrical.resistors.resistor_2;strokeWidth=1;direction=south;" parent="1" vertex="1">
          <mxGeometry x="570" y="416" width="10" height="46" as="geometry" />
        </mxCell>
        <mxCell id="i7wElS3efbMtg37ijF3j-26" value="&lt;font face=&quot;Times New Roman&quot;&gt;&lt;i&gt;&lt;b&gt;L&lt;/b&gt;&lt;/i&gt;&lt;/font&gt;" style="text;html=1;strokeColor=none;fillColor=none;align=center;verticalAlign=middle;whiteSpace=wrap;rounded=0;" parent="1" vertex="1">
          <mxGeometry x="452" y="429" width="40" height="20" as="geometry" />
        </mxCell>
        <mxCell id="UEMcpzTu5wZbAUCa-Jl2-1" value="&lt;font style=&quot;font-size: 18px&quot;&gt;V&lt;/font&gt;&lt;font style=&quot;font-size: 12px&quot;&gt;IN&lt;/font&gt;" style="text;html=1;align=center;verticalAlign=middle;resizable=0;points=[];autosize=1;" vertex="1" parent="1">
          <mxGeometry x="250" y="449" width="40" height="20" as="geometry" />
        </mxCell>
        <mxCell id="UEMcpzTu5wZbAUCa-Jl2-2" value="&lt;font style=&quot;font-size: 18px&quot;&gt;V&lt;/font&gt;&lt;font style=&quot;font-size: 12px&quot;&gt;OUT&lt;/font&gt;" style="text;html=1;align=center;verticalAlign=middle;resizable=0;points=[];autosize=1;" vertex="1" parent="1">
          <mxGeometry x="525" y="455" width="50" height="20" as="geometry" />
        </mxCell>
      </root>
    </mxGraphModel>
  </diagram>
</mxfile>
